<svg width="90" height="90" viewBox="0 0 90 90" fill="none" xmlns="http://www.w3.org/2000/svg">
<path d="M0 45C0 20.1472 20.1472 0 45 0C69.8528 0 90 20.1472 90 45C90 69.8528 69.8528 90 45 90C20.1472 90 0 69.8528 0 45Z" fill="white"/>
<path d="M29.5685 32.8077C29.4462 32.7188 29.3465 32.6023 29.2776 32.4677C29.2086 32.3332 29.1723 32.1842 29.1715 32.033C29.1712 31.8816 29.207 31.7323 29.2761 31.5975C29.3452 31.4628 29.4454 31.3464 29.5685 31.2583L31.7378 29.6314L32.9386 26.61C33.0105 26.4299 33.1348 26.2755 33.2953 26.1668C33.4559 26.058 33.6453 25.9999 33.8392 25.9999C34.0331 25.9999 34.2226 26.058 34.3831 26.1668C34.5437 26.2755 34.6679 26.4299 34.7398 26.61L35.9503 29.6314L38.1195 31.2583C38.2398 31.3485 38.3375 31.4654 38.4047 31.5999C38.472 31.7344 38.507 31.8827 38.5069 32.033C38.5059 32.1832 38.4704 32.3311 38.4033 32.4654C38.3361 32.5997 38.2391 32.7168 38.1195 32.8077L35.9503 34.4346L34.7398 37.456C34.6679 37.6361 34.5437 37.7905 34.3831 37.8992C34.2226 38.008 34.0331 38.0661 33.8392 38.0661C33.6453 38.0661 33.4559 38.008 33.2953 37.8992C33.1348 37.7905 33.0105 37.6361 32.9386 37.456L31.7378 34.4346L29.5685 32.8077ZM71.723 55.8847L69.5441 54.2578L68.3433 51.2364C68.2714 51.0563 68.1471 50.9019 67.9866 50.7932C67.8261 50.6844 67.6366 50.6263 67.4427 50.6263C67.2488 50.6263 67.0593 50.6844 66.8988 50.7932C66.7382 50.9019 66.614 51.0563 66.5421 51.2364L65.3316 54.2578L63.1624 55.8847C63.0434 55.9758 62.947 56.0931 62.8807 56.2274C62.8144 56.3617 62.7799 56.5096 62.7799 56.6594C62.7799 56.8092 62.8144 56.957 62.8807 57.0914C62.947 57.2257 63.0434 57.343 63.1624 57.4341L65.3315 59.061L66.542 62.0825C66.614 62.2625 66.7382 62.4169 66.8988 62.5257C67.0593 62.6344 67.2488 62.6925 67.4427 62.6925C67.6366 62.6925 67.826 62.6344 67.9866 62.5257C68.1471 62.4169 68.2714 62.2625 68.3433 62.0825L69.5441 59.061L71.723 57.4341C71.842 57.343 71.9384 57.2257 72.0047 57.0914C72.071 56.957 72.1055 56.8092 72.1055 56.6594C72.1055 56.5096 72.071 56.3618 72.0047 56.2274C71.9384 56.0931 71.842 55.9758 71.723 55.8847ZM58.683 32.9469C58.6854 32.951 60.0734 32.9355 60.077 32.9384C60.3339 32.9369 60.5796 32.8334 60.7601 32.6508C60.9407 32.4681 61.0413 32.2212 61.0398 31.9643C61.0382 31.7075 60.9348 31.4618 60.7521 31.2812C60.5694 31.1007 60.3225 31.0001 60.0657 31.0016L58.6774 31.0101C58.4243 31.0164 58.1837 31.1216 58.0072 31.3032C57.8307 31.4847 57.7323 31.7281 57.733 31.9813C57.7338 32.2344 57.8336 32.4773 58.0112 32.6578C58.1887 32.8382 58.4299 32.942 58.683 32.9469ZM56.6677 33.049C56.5401 33.0491 56.4137 33.0743 56.2958 33.1233C56.178 33.1724 56.071 33.2442 55.981 33.3347C55.891 33.4253 55.8198 33.5327 55.7714 33.6508C55.7231 33.769 55.6986 33.8955 55.6993 34.0231L55.7078 35.4114C55.71 35.6679 55.8137 35.913 55.9963 36.093C56.1789 36.2731 56.4255 36.3734 56.6819 36.3718C56.9383 36.3703 57.1837 36.2672 57.3642 36.085C57.5447 35.9028 57.6455 35.6565 57.6446 35.4001L57.6361 34.0118C57.6348 33.7559 57.5321 33.5109 57.3507 33.3305C57.1692 33.1501 56.9236 33.0489 56.6677 33.049ZM53.2405 32.9791C53.2428 32.9831 54.6309 32.9677 54.6345 32.9706C54.8909 32.9684 55.1361 32.8647 55.3161 32.6821C55.4962 32.4995 55.5964 32.2529 55.5949 31.9965C55.5934 31.74 55.4903 31.4947 55.3081 31.3142C55.1259 31.1337 54.8796 31.0329 54.6231 31.0338L53.2349 31.0423C52.9818 31.0487 52.7413 31.1539 52.5648 31.3354C52.3884 31.5169 52.29 31.7603 52.2907 32.0134C52.2915 32.2666 52.3913 32.5094 52.5688 32.6898C52.7463 32.8703 52.9874 32.9741 53.2405 32.9791ZM56.6441 30.9316C56.7717 30.9316 56.8981 30.9064 57.016 30.8573C57.1338 30.8083 57.2408 30.7365 57.3308 30.6459C57.4208 30.5554 57.492 30.448 57.5404 30.3299C57.5887 30.2117 57.6132 30.0852 57.6125 29.9575L57.604 28.5693C57.6019 28.3128 57.4981 28.0677 57.3155 27.8876C57.1329 27.7076 56.8864 27.6073 56.6299 27.6088C56.3735 27.6103 56.1281 27.7135 55.9476 27.8957C55.7671 28.0778 55.6663 28.3242 55.6672 28.5806L55.6757 29.9689C55.6771 30.2248 55.7797 30.4697 55.9612 30.6501C56.1427 30.8305 56.3882 30.9318 56.6441 30.9316ZM25.6742 56.2935C25.6718 56.2894 24.2838 56.3049 24.2802 56.302C24.0234 56.3035 23.7776 56.407 23.5971 56.5896C23.4165 56.7723 23.316 57.0192 23.3175 57.2761C23.319 57.5329 23.4224 57.7786 23.6051 57.9592C23.7878 58.1397 24.0347 58.2403 24.2915 58.2388L25.6798 58.2303C25.9329 58.2239 26.1735 58.1187 26.35 57.9372C26.5265 57.7557 26.6249 57.5123 26.6242 57.2591C26.6234 57.0059 26.5236 56.7631 26.3461 56.5826C26.1685 56.4021 25.9273 56.2984 25.6742 56.2935ZM22.2715 58.3409C22.1439 58.3409 22.0175 58.3662 21.8997 58.4152C21.7818 58.4642 21.6748 58.5361 21.5848 58.6266C21.4948 58.7171 21.4236 58.8245 21.3753 58.9427C21.3269 59.0608 21.3024 59.1874 21.3031 59.315L21.3107 60.7033C21.3122 60.9601 21.4157 61.2058 21.5984 61.3864C21.781 61.5669 22.028 61.6675 22.2848 61.666C22.5416 61.6645 22.7873 61.561 22.9679 61.3784C23.1484 61.1957 23.249 60.9488 23.2475 60.6919L23.24 59.3037C23.2384 59.0478 23.1357 58.803 22.9543 58.6226C22.7728 58.4422 22.5274 58.3409 22.2715 58.3409ZM20.2326 56.3256C20.2303 56.3216 18.8423 56.3361 18.8386 56.3332C18.5856 56.3396 18.3451 56.4448 18.1686 56.6263C17.9922 56.8079 17.8938 57.0512 17.8945 57.3044C17.8953 57.5575 17.9951 57.8003 18.1726 57.9808C18.3502 58.1613 18.5913 58.2651 18.8444 58.27C18.8467 58.274 20.2347 58.2595 20.2383 58.2624C20.4912 58.2558 20.7315 58.1505 20.9078 57.969C21.084 57.7875 21.1823 57.5443 21.1816 57.2913C21.1808 57.0383 21.0811 56.7956 20.9038 56.6151C20.7265 56.4347 20.4856 56.3308 20.2326 56.3256ZM22.2479 56.2235C22.3755 56.2235 22.5019 56.1982 22.6198 56.1492C22.7376 56.1002 22.8446 56.0283 22.9346 55.9378C23.0246 55.8473 23.0958 55.7399 23.1442 55.6217C23.1925 55.5036 23.217 55.3771 23.2163 55.2494L23.2078 53.8611C23.207 53.734 23.1812 53.6082 23.1319 53.491C23.0825 53.3738 23.0106 53.2674 22.9201 53.178C22.8297 53.0886 22.7225 53.0179 22.6047 52.97C22.4869 52.922 22.3609 52.8977 22.2337 52.8984C22.1065 52.8992 21.9807 52.9249 21.8635 52.9743C21.7463 53.0237 21.64 53.0956 21.5506 53.1861C21.4612 53.2765 21.3905 53.3837 21.3425 53.5015C21.2945 53.6192 21.2702 53.7453 21.271 53.8725L21.2795 55.2608C21.2808 55.5167 21.3835 55.7616 21.565 55.942C21.7464 56.1224 21.992 56.2237 22.2479 56.2235ZM63.9468 39.8093C65.3037 41.977 69.116 41.0071 69.0696 38.4631C69.039 37.7577 68.7306 37.0929 68.2117 36.614C67.6929 36.1351 67.0057 35.8808 66.3 35.9066C65.8305 35.8759 65.3617 35.9748 64.9446 36.1927C64.5276 36.4105 64.1786 36.7388 63.9356 37.1417C63.6927 37.5446 63.5652 38.0066 63.5672 38.4771C63.5691 38.9475 63.7005 39.4084 63.9468 39.8093ZM65.8255 42.9372L61.1675 57.3954V61.8307C61.1646 62.4068 60.9338 62.9583 60.5255 63.3648C60.1172 63.7712 59.5647 63.9996 58.9885 63.9999H31.4375C30.8614 63.9995 30.3089 63.7712 29.9006 63.3648C29.4923 62.9583 29.2615 62.4068 29.2586 61.8307V57.4438L23.9809 42.9081C24.934 42.7894 25.8265 42.3769 26.5345 41.7279C27.2425 41.0788 27.7309 40.2255 27.9319 39.2863L36.9865 43.5279L41.7994 36.8556C42.6756 37.7163 43.844 38.2152 45.0716 38.2529C46.2992 38.2906 47.496 37.8643 48.4233 37.059L52.9167 44.2542L61.7485 39.6253C61.9729 40.3883 62.3903 41.0805 62.9602 41.6352C63.5302 42.1899 64.2335 42.5883 65.0023 42.7919C65.2726 42.8613 65.5478 42.9098 65.8255 42.9372ZM37.2576 48.0794C37.2519 47.9104 37.2025 47.7458 37.1143 47.6015C37.026 47.4573 36.9019 47.3383 36.7541 47.2562L31.7668 44.4769C31.6176 44.3979 31.4504 44.3587 31.2816 44.363C31.1127 44.3674 30.9478 44.4152 30.8028 44.5018C30.6578 44.5884 30.5376 44.7109 30.4537 44.8575C30.3698 45.0041 30.3251 45.1699 30.3239 45.3388L30.4304 51.3138C30.4309 51.4841 30.4769 51.6511 30.5638 51.7976C30.6506 51.9441 30.7751 52.0646 30.9243 52.1467L35.9212 54.9163C36.0695 54.9979 36.2367 55.0392 36.406 55.036C36.5753 55.0327 36.7408 54.9851 36.8859 54.8978C37.031 54.8106 37.1507 54.6868 37.2329 54.5387C37.3151 54.3907 37.3571 54.2237 37.3545 54.0544L37.2576 48.0794ZM54.6211 54.9163L59.6083 52.1467C59.7574 52.0635 59.8822 51.943 59.9705 51.797C60.0588 51.6509 60.1075 51.4844 60.1119 51.3138L60.2087 45.3388C60.2095 45.1702 60.1665 45.0043 60.0838 44.8573C60.0012 44.7103 59.8817 44.5873 59.7372 44.5004C59.5927 44.4135 59.4281 44.3656 59.2595 44.3615C59.0909 44.3574 58.9241 44.3972 58.7755 44.4769L53.7785 47.2562C53.6306 47.3372 53.5068 47.4562 53.42 47.6008C53.3332 47.7455 53.2865 47.9107 53.2847 48.0794L53.1781 54.0544C53.1772 54.2241 53.2206 54.3911 53.304 54.5389C53.3874 54.6868 53.5078 54.8103 53.6535 54.8973C53.7992 54.9843 53.9651 55.0319 54.1348 55.0352C54.3044 55.0385 54.4721 54.9975 54.6211 54.9163ZM40.5696 47.5565C40.4886 47.7016 40.4461 47.8649 40.4461 48.031C40.4461 48.1971 40.4886 48.3605 40.5696 48.5055L43.9493 54.5483C44.0359 54.6961 44.1597 54.8187 44.3084 54.9039C44.457 54.989 44.6254 55.0338 44.7967 55.0338C44.968 55.0338 45.1363 54.989 45.285 54.9039C45.4336 54.8187 45.5574 54.6961 45.644 54.5483L49.014 48.5055C49.095 48.3605 49.1375 48.1971 49.1375 48.031C49.1375 47.8649 49.095 47.7015 49.014 47.5565L45.6343 41.5137C45.5479 41.365 45.4238 41.2418 45.2745 41.1564C45.1253 41.0711 44.9561 41.0267 44.7842 41.0276C44.6122 41.0286 44.4436 41.075 44.2953 41.162C44.147 41.2491 44.0243 41.3737 43.9396 41.5233L40.5696 47.5565ZM25.8789 39.422C27.2223 35.4912 20.759 34.4895 20.5043 38.4633C20.5099 41.254 24.7651 41.9835 25.8789 39.422ZM43.6007 35.8389C45.2518 37.0315 48.0383 35.8893 47.9875 33.7664C47.9585 33.0604 47.6506 32.3947 47.1314 31.9154C46.6122 31.4361 45.924 31.1824 45.2179 31.2099C44.6597 31.1661 44.1027 31.3082 43.6338 31.6142C43.1649 31.9201 42.8105 32.3727 42.6258 32.9013C42.4412 33.4298 42.4366 34.0047 42.613 34.5361C42.7894 35.0675 43.1367 35.5256 43.6007 35.8389ZM47.0578 48.0311L44.7821 43.9734L42.516 48.031L44.7918 52.0886L47.0578 48.0311ZM58.2429 46.9852L55.2118 48.6702L55.1441 52.4082L58.1848 50.7232L58.2429 46.9852ZM32.2897 46.9852L32.3575 50.7232L35.3886 52.4082L35.3305 48.6702L32.2897 46.9852Z" fill="url(#paint0_linear_381_1944)"/>
<defs>
<linearGradient id="paint0_linear_381_1944" x1="70.5137" y1="31.4039" x2="43.6815" y2="73.7894" gradientUnits="userSpaceOnUse">
<stop stop-color="#884D32"/>
<stop offset="0.5" stop-color="#AF6C29"/>
<stop offset="1" stop-color="#D39C79"/>
</linearGradient>
</defs>
</svg>
