<svg width="90" height="90" viewBox="0 0 90 90" fill="none" xmlns="http://www.w3.org/2000/svg">
<path d="M0 45C0 20.1472 20.1472 0 45 0C69.8528 0 90 20.1472 90 45C90 69.8528 69.8528 90 45 90C20.1472 90 0 69.8528 0 45Z" fill="white"/>
<path d="M54.4539 59.8208C53.7013 59.5928 52.9212 60.0049 52.6933 60.7464C52.2538 62.1623 52.0314 63.6317 52.0314 65.1135V67.5936C52.0314 68.3709 52.6603 68.9999 53.4376 68.9999C54.2149 68.9999 54.8439 68.3709 54.8439 67.5936V65.1135C54.8439 63.9146 55.0252 62.7253 55.3795 61.5814C55.6102 60.8385 55.1954 60.0515 54.4539 59.8208ZM35.5465 59.8208C34.805 60.0515 34.3902 60.8384 34.6209 61.5814C34.9766 62.7253 35.1565 63.9146 35.1565 65.1135V67.5936C35.1565 68.3709 35.7855 68.9999 36.5628 68.9999C37.3401 68.9999 37.969 68.3709 37.969 67.5936V65.1135C37.969 63.6317 37.7466 62.1623 37.3071 60.7464C37.0777 60.0063 36.2991 59.5942 35.5465 59.8208ZM45.0002 43.6875C44.2229 43.6875 43.5939 44.3164 43.5939 45.0937V67.5936C43.5939 68.3709 44.2229 68.9999 45.0002 68.9999C45.7774 68.9999 46.4064 68.3709 46.4064 67.5936V45.0937C46.4064 44.3164 45.7774 43.6875 45.0002 43.6875ZM50.6251 52.1249C49.8485 52.1249 49.2189 52.7545 49.2189 53.5312C49.2189 54.3078 49.8485 54.9374 50.6251 54.9374C51.4018 54.9374 52.0314 54.3078 52.0314 53.5312C52.0314 52.7545 51.4018 52.1249 50.6251 52.1249ZM61.8751 63.3749C61.0985 63.3749 60.4688 64.0045 60.4688 64.7811C60.4688 65.5577 61.0985 66.1874 61.8751 66.1874C62.6517 66.1874 63.2813 65.5577 63.2813 64.7811C63.2813 64.0045 62.6518 63.3749 61.8751 63.3749ZM39.3752 52.1249C38.5986 52.1249 37.9689 52.7545 37.9689 53.5312C37.9689 54.3078 38.5986 54.9374 39.3752 54.9374C40.1518 54.9374 40.7814 54.3078 40.7814 53.5312C40.7814 52.7545 40.1519 52.1249 39.3752 52.1249ZM28.1252 63.3749C27.3486 63.3749 26.719 64.0045 26.719 64.7811C26.719 65.5577 27.3486 66.1874 28.1252 66.1874C28.9018 66.1874 29.5315 65.5577 29.5315 64.7811C29.5315 64.0045 28.9019 63.3749 28.1252 63.3749ZM67.5938 38.0625C65.2675 38.0625 63.3751 36.17 63.3751 33.8437C63.3751 33.0665 62.7461 32.4375 61.9688 32.4375C61.1916 32.4375 60.5626 33.0665 60.5626 33.8437C60.5626 37.7206 63.7157 40.875 67.5938 40.875C68.3711 40.875 69.0001 40.246 69.0001 39.4687C69.0001 38.6914 68.3711 38.0625 67.5938 38.0625ZM29.4377 33.8437C29.4377 33.0665 28.8087 32.4375 28.0315 32.4375C27.2542 32.4375 26.6252 33.0665 26.6252 33.8437C26.6252 36.17 24.7328 38.0625 22.4065 38.0625C21.6292 38.0625 21.0002 38.6914 21.0002 39.4687C21.0002 40.246 21.6292 40.875 22.4065 40.875C26.2833 40.875 29.4377 37.7206 29.4377 33.8437Z" fill="url(#paint0_linear_381_1933)"/>
<path d="M53.0819 42.6293L50.8256 35.6722L56.7389 31.3711C57.2306 31.0127 57.4365 30.3782 57.2498 29.8C57.0603 29.2205 56.5219 28.8278 55.9122 28.8278L48.6008 28.8236L46.3377 21.8694C45.9614 20.7104 44.0389 20.7104 43.6626 21.8694L41.3994 28.8237L34.0852 28.8279C33.4769 28.8279 32.9371 29.2206 32.749 29.8001C32.5608 30.3783 32.7668 31.0128 33.2598 31.3712L39.1746 35.6723L36.9183 42.6294C36.7302 43.209 36.9361 43.8434 37.4291 44.2005C37.9235 44.5603 38.5882 44.5589 39.0826 44.2019L45.0001 39.9049L50.9176 44.2019C51.4099 44.5575 52.0759 44.5608 52.571 44.2005C53.0641 43.8433 53.27 43.2089 53.0819 42.6293ZM35.5035 46.5028L31.5238 46.5L30.2919 42.7153C29.9156 41.5563 27.9931 41.5563 27.6168 42.7153L26.3849 46.5L22.4051 46.5028C21.7968 46.5028 21.2571 46.8955 21.0689 47.475C20.8807 48.0532 21.0867 48.6877 21.5797 49.0461L24.7987 51.3861L23.5697 55.1723C23.3815 55.7518 23.5875 56.3862 24.0805 56.7433C24.5749 57.1031 25.2395 57.1017 25.734 56.7447L28.9544 54.406L32.1748 56.7447C32.6671 57.1003 33.3331 57.1037 33.8282 56.7433C34.3213 56.3862 34.5272 55.7518 34.3391 55.1723L33.11 51.3861L36.329 49.046C36.822 48.6876 37.028 48.0531 36.8398 47.4749C36.6516 46.8955 36.1119 46.5028 35.5035 46.5028ZM68.9314 47.475C68.7419 46.8955 68.2035 46.5028 67.5938 46.5028L63.614 46.5L62.3835 42.7153C62.0045 41.559 60.0874 41.559 59.7084 42.7153L58.4779 46.5L54.4967 46.5028C53.8884 46.5028 53.3487 46.8955 53.1605 47.475C52.9724 48.0532 53.1783 48.6877 53.6714 49.0461L56.8876 51.3862L55.6627 55.1724C55.476 55.7519 55.6819 56.3863 56.1735 56.7447C56.6699 57.1032 57.3344 57.1005 57.827 56.7447L61.046 54.406L64.265 56.7447C64.7593 57.1018 65.424 57.1031 65.9184 56.7433C66.4101 56.3862 66.616 55.7518 66.4293 55.1723L65.2015 51.3861L68.4205 49.046C68.9122 48.689 69.1181 48.0545 68.9314 47.475Z" fill="url(#paint1_linear_381_1933)"/>
<defs>
<linearGradient id="paint0_linear_381_1933" x1="90.5221" y1="13.0042" x2="51.9303" y2="80.8753" gradientUnits="userSpaceOnUse">
<stop stop-color="#884D32"/>
<stop offset="0.5" stop-color="#AF6C29"/>
<stop offset="0.794174" stop-color="#D39C79"/>
</linearGradient>
<linearGradient id="paint1_linear_381_1933" x1="90.5213" y1="1.85896" x2="52.8061" y2="69.2005" gradientUnits="userSpaceOnUse">
<stop stop-color="#884D32"/>
<stop offset="0.5" stop-color="#AF6C29"/>
<stop offset="0.794174" stop-color="#D39C79"/>
</linearGradient>
</defs>
</svg>
