<svg width="90" height="90" viewBox="0 0 90 90" fill="none" xmlns="http://www.w3.org/2000/svg">
<path d="M0 45C0 20.1472 20.1472 0 45 0C69.8528 0 90 20.1472 90 45C90 69.8528 69.8528 90 45 90C20.1472 90 0 69.8528 0 45Z" fill="white"/>
<path d="M44.4487 25.7609C44.3862 25.4578 44.4453 25.1489 44.6153 24.8909C44.7854 24.6329 45.0457 24.457 45.3488 24.3945C45.4275 24.3783 45.5062 24.3702 45.5848 24.3702C45.8081 24.3702 46.0268 24.435 46.2188 24.5611C46.4768 24.7312 46.6538 24.9915 46.7163 25.2935L46.9026 26.2005C46.9651 26.5036 46.906 26.8114 46.736 27.0694C46.5659 27.3274 46.3056 27.5032 46.0036 27.5657C45.7028 27.6293 45.3939 27.5692 45.1359 27.4003C45.1325 27.3968 45.1278 27.3945 45.1244 27.391C44.8722 27.2209 44.6986 26.9641 44.6373 26.6656L44.591 26.44V26.4388V26.4377L44.4487 25.7609ZM42.6069 27.3193L41.0254 27.6432C41.4939 28.5549 42.2124 30.06 42.6647 31.5155C42.947 32.4202 43.0835 33.1548 43.0835 33.7588C43.0835 35.0962 42.9343 36.4197 42.8047 37.3233L43.7326 36.628C43.9374 36.4741 44.2266 36.5157 44.3805 36.7205L45.0954 37.6727C45.3164 35.965 45.6774 32.7036 45.4634 30.9509C45.4472 30.8329 45.4298 30.7172 45.409 30.6096C45.2331 29.728 44.9173 28.8696 44.473 28.0528C44.1549 27.7982 43.9235 27.4639 43.7985 27.0775L42.6427 27.317C42.63 27.3181 42.6185 27.317 42.6069 27.3193ZM41.6189 31.3037C41.1422 29.9351 40.4758 28.5838 40.0836 27.8353L39.3675 27.9822C39.2576 28.0076 39.1338 28.0366 39.0204 28.0597C39.0111 28.062 39.0019 28.0643 38.9926 28.0655C38.9868 28.0666 38.9822 28.0678 38.9764 28.069L31.3083 29.6459L32.0557 33.2705L41.6189 31.3037ZM49.5265 55.4351L50.4879 47.6269L46.0464 47.0797L44.9751 46.9478L44.0137 54.7559L49.5265 55.4351ZM43.2224 61.1862L48.734 61.8653L49.4131 56.3537L43.9015 55.6745L43.2224 61.1862ZM51.2318 25.6695C51.2029 25.6359 51.1879 25.5966 51.1705 25.5573L48.3673 26.1346C48.7583 26.8854 49.5115 28.4184 50.0078 29.9397C50.017 29.9582 50.0205 29.9779 50.0263 29.9976C50.0309 30.0126 50.0402 30.023 50.0437 30.0381C50.0448 30.0427 50.0425 30.0473 50.0437 30.0531C50.3051 30.8757 50.4879 31.6902 50.4879 32.367C50.4879 33.7044 50.3387 35.0279 50.2091 35.9315L51.137 35.2362C51.3406 35.0823 51.631 35.1239 51.7848 35.3287L52.4998 36.2809C52.7381 34.4518 53.1361 30.8387 52.8122 29.2178C52.3807 27.0624 51.2434 25.6834 51.2318 25.6695ZM48.3754 23.1497C48.5038 23.3707 48.4274 23.6541 48.2064 23.7814L47.2751 24.3205C47.4024 24.4987 47.4938 24.6977 47.5597 24.9094C48.2111 24.8654 50.8824 24.6722 52.4269 24.354C53.3166 24.1713 54.1496 23.8797 54.7119 23.5535C55.1851 23.2793 55.4535 22.9889 55.4141 22.7945C55.3031 22.2519 55.0381 21.9546 54.6378 21.5045C54.4793 21.3264 54.3093 21.1343 54.1311 20.9075C53.8546 20.5558 53.8083 20.1312 53.7678 19.7576C53.6903 19.0437 53.629 18.4791 51.9746 18.2813C50.0286 18.0488 47.7425 21.6723 46.788 23.5338L47.7437 22.9808C47.9623 22.8523 48.2469 22.9276 48.3754 23.1497ZM47.5077 27.5796C47.2022 28.0435 46.7337 28.3617 46.1888 28.4739C46.0476 28.5028 45.9053 28.5179 45.7642 28.5179C45.748 28.5179 45.7329 28.5144 45.7179 28.5144C45.9701 29.1102 46.1656 29.7211 46.2963 30.3446L48.9816 29.7893C48.6021 28.7342 48.1174 27.6987 47.7657 26.9953C47.7078 27.1978 47.6268 27.3968 47.5077 27.5796ZM52.6132 25.2611C52.612 25.2611 52.6109 25.2611 52.6109 25.2611L52.6074 25.2622C52.5877 25.2657 52.5658 25.2703 52.5449 25.2738L52.1539 25.3548C52.5264 25.8777 53.2865 27.1029 53.6718 28.8233L60.6146 27.3956L59.8672 23.7675L52.6155 25.2611C52.6144 25.2611 52.6144 25.2611 52.6132 25.2611ZM38.8295 27.1538C40.3752 26.8357 42.9065 25.9576 43.5209 25.7412C43.4977 25.5202 43.5035 25.3016 43.5498 25.0887L42.4808 24.9614C42.2263 24.9314 42.0458 24.7011 42.0759 24.4466C42.1059 24.1932 42.3338 24.0128 42.5907 24.0417L43.6875 24.1724C42.077 22.8385 38.5484 20.4112 36.8488 21.3946C35.4061 22.2299 35.5727 22.7725 35.7844 23.4597C35.8944 23.8195 36.0193 24.2268 35.9036 24.6606C35.8296 24.9383 35.7486 25.1824 35.6734 25.4092C35.4836 25.9807 35.3575 26.359 35.4698 26.9005C35.5473 27.2776 36.8627 27.5576 38.8295 27.1538ZM49.6526 61.9787L60.2166 63.2802L60.8957 57.7686L50.3317 56.467L49.6526 61.9787ZM50.4451 55.5484L61.0091 56.85L61.9705 49.0418L51.4065 47.7403L50.4451 55.5484ZM48.5778 70.7054L56.7411 71.7108C57.3844 71.7895 58.0161 71.6148 58.5251 71.2168C59.0342 70.8188 59.3581 70.2473 59.438 69.6052L60.1043 64.1977L49.5404 62.8961L48.5778 70.7054ZM31.1671 60.6343L30.5007 66.0418C30.3376 67.3654 31.2828 68.5755 32.6064 68.7386L41.229 69.8007L42.1904 61.9926L31.1671 60.6343ZM42.9829 55.5612L31.9596 54.2029L31.2805 59.7146L42.3038 61.0728L42.9829 55.5612ZM43.109 62.1048L42.1476 69.9129L46.4629 70.444L47.6592 70.5909L48.6206 62.7827L43.109 62.1048ZM44.0577 46.8356L33.0344 45.4773L32.073 53.2855L43.0963 54.6437L44.0577 46.8356ZM66.206 33.1676C66.1354 32.9223 65.8809 32.78 65.6345 32.8506C65.4968 32.8899 62.2308 33.8478 59.8521 36.702C59.158 37.5361 58.4083 38.6329 57.6204 39.9646C57.4897 40.1844 57.5626 40.469 57.7835 40.5985C57.8576 40.6425 57.9386 40.6633 58.0184 40.6633C58.1769 40.6633 58.3308 40.5824 58.4175 40.4366C59.18 39.1478 59.9019 38.0903 60.5636 37.2943C62.7526 34.667 65.8578 33.7495 65.889 33.7414C66.1343 33.6685 66.2766 33.4128 66.206 33.1676ZM56.2749 42.4022C55.6016 43.6991 55.1631 44.664 55.1585 44.6733C55.0532 44.9058 55.1561 45.18 55.3887 45.2853C55.4512 45.3131 55.5159 45.3269 55.5796 45.3269C55.7554 45.3269 55.9243 45.2263 56.0019 45.0551C56.0065 45.0458 56.4357 44.1017 57.0963 42.828C57.2143 42.6012 57.1252 42.3212 56.8985 42.2044C56.6717 42.0864 56.3929 42.1743 56.2749 42.4022ZM38.5021 41.5576C38.2788 41.6803 38.1967 41.9626 38.3204 42.1859C39.069 43.5464 39.4033 44.5379 39.4068 44.5483C39.4716 44.7427 39.6521 44.8653 39.8464 44.8653C39.895 44.8653 39.9436 44.8572 39.9922 44.841C40.2352 44.76 40.3659 44.4986 40.2861 44.2568C40.2722 44.2128 39.9251 43.182 39.1326 41.7404C39.0077 41.5148 38.7265 41.4339 38.5021 41.5576ZM30.5898 36.5342C30.6245 36.5342 34.1 36.5643 36.2507 39.1454C36.6336 39.6036 37.005 40.0999 37.3556 40.6205C37.4446 40.7536 37.5916 40.8253 37.7397 40.8253C37.8288 40.8253 37.9178 40.7999 37.9977 40.7466C38.2094 40.6043 38.2661 40.3163 38.1238 40.1045C37.7559 39.5573 37.3637 39.0355 36.9611 38.5531C34.5361 35.6434 30.7495 35.6099 30.5898 35.6099C30.3341 35.6099 30.127 35.8169 30.127 36.0726C30.127 36.3283 30.3341 36.5342 30.5898 36.5342ZM63.2153 40.2364C64.3642 40.2364 65.2978 41.1701 65.2978 42.3189C65.2978 43.4677 64.3642 44.4014 63.2153 44.4014C62.0665 44.4014 61.1329 43.4677 61.1329 42.3189C61.1329 41.1701 62.0677 40.2364 63.2153 40.2364ZM63.2153 41.162C62.5767 41.162 62.0584 41.6814 62.0584 42.3189C62.0584 42.9564 62.5767 43.4758 63.2153 43.4758C63.854 43.4758 64.3723 42.9564 64.3723 42.3189C64.3723 41.6814 63.854 41.162 63.2153 41.162ZM36.2727 41.2545C36.2727 41.5102 36.0656 41.7173 35.8099 41.7173C35.044 41.7173 34.4216 42.3397 34.4216 43.1056C34.4216 43.3613 34.2145 43.5684 33.9588 43.5684C33.7031 43.5684 33.496 43.3613 33.496 43.1056C33.496 42.3397 32.8736 41.7173 32.1077 41.7173C31.852 41.7173 31.6449 41.5102 31.6449 41.2545C31.6449 40.9988 31.852 40.7918 32.1077 40.7918C32.8736 40.7918 33.496 40.1693 33.496 39.4034C33.496 39.1478 33.7031 38.9407 33.9588 38.9407C34.2145 38.9407 34.4216 39.1478 34.4216 39.4034C34.4216 40.1693 35.044 40.7918 35.8099 40.7918C36.0656 40.7918 36.2727 40.9988 36.2727 41.2545ZM34.4227 41.2545C34.2469 41.1226 34.0907 40.9665 33.9588 40.7906C33.8269 40.9665 33.6707 41.1226 33.4949 41.2545C33.6707 41.3864 33.8269 41.5426 33.9588 41.7185C34.0907 41.5426 34.2469 41.3864 34.4227 41.2545ZM69 61.6813C69 61.937 68.7929 62.1441 68.5372 62.1441C67.297 62.1441 66.287 63.153 66.287 64.3932C66.287 64.6489 66.0799 64.856 65.8242 64.856C65.5685 64.856 65.3614 64.6489 65.3614 64.3932C65.3614 63.153 64.3526 62.1441 63.1124 62.1441C62.8567 62.1441 62.6496 61.937 62.6496 61.6813C62.6496 61.4257 62.8567 61.2186 63.1124 61.2186C64.3526 61.2186 65.3614 60.2097 65.3614 58.9695C65.3614 58.7138 65.5685 58.5067 65.8242 58.5067C66.0799 58.5067 66.287 58.7138 66.287 58.9695C66.287 60.2097 67.2958 61.2186 68.5372 61.2186C68.7929 61.2186 69 61.4257 69 61.6813ZM66.8886 61.6813C66.4547 61.4164 66.0892 61.052 65.8254 60.6181C65.5604 61.052 65.196 61.4164 64.7622 61.6813C65.196 61.9463 65.5604 62.3107 65.8254 62.7446C66.0892 62.3107 66.4547 61.9451 66.8886 61.6813ZM27.3504 52.4259C27.3504 52.6816 27.1433 52.8886 26.8876 52.8886C25.6474 52.8886 24.6374 53.8975 24.6374 55.1377C24.6374 55.3934 24.4303 55.6005 24.1746 55.6005C23.9189 55.6005 23.7119 55.3934 23.7119 55.1377C23.7119 53.8975 22.703 52.8886 21.4628 52.8886C21.2071 52.8886 21 52.6816 21 52.4259C21 52.1702 21.2071 51.9631 21.4628 51.9631C22.703 51.9631 23.7119 50.9543 23.7119 49.714C23.7119 49.4583 23.9189 49.2513 24.1746 49.2513C24.4303 49.2513 24.6374 49.4583 24.6374 49.714C24.6374 50.9543 25.6462 51.9631 26.8876 51.9631C27.1433 51.9631 27.3504 52.1702 27.3504 52.4259ZM25.239 52.4259C24.8052 52.1609 24.4396 51.7965 24.1758 51.3627C23.9108 51.7965 23.5464 52.1609 23.1126 52.4259C23.5464 52.6908 23.9108 53.0552 24.1758 53.4891C24.4396 53.0552 24.8052 52.6897 25.239 52.4259ZM26.5093 26.396H27.2035V27.0902C27.2035 27.3459 27.4106 27.553 27.6662 27.553C27.9219 27.553 28.129 27.3459 28.129 27.0902V26.396H28.8232C29.0789 26.396 29.286 26.1889 29.286 25.9333C29.286 25.6776 29.0789 25.4705 28.8232 25.4705H28.129V24.7763C28.129 24.5206 27.9219 24.3136 27.6662 24.3136C27.4106 24.3136 27.2035 24.5206 27.2035 24.7763V25.4705H26.5093C26.2536 25.4705 26.0465 25.6776 26.0465 25.9333C26.0465 26.1889 26.2536 26.396 26.5093 26.396ZM65.1011 24.5449H65.7953V25.2391C65.7953 25.4948 66.0024 25.7019 66.2581 25.7019C66.5138 25.7019 66.7208 25.4948 66.7208 25.2391V24.5449H67.415C67.6707 24.5449 67.8778 24.3379 67.8778 24.0822C67.8778 23.8265 67.6707 23.6194 67.415 23.6194H66.7208V22.9252C66.7208 22.6696 66.5138 22.4625 66.2581 22.4625C66.0024 22.4625 65.7953 22.6696 65.7953 22.9252V23.6194H65.1011C64.8455 23.6194 64.6384 23.8265 64.6384 24.0822C64.6384 24.3379 64.8455 24.5449 65.1011 24.5449ZM51.2677 41.4362C51.5234 41.4362 51.7305 41.2291 51.7305 40.9734V40.2792H52.4246C52.6803 40.2792 52.8874 40.0721 52.8874 39.8165C52.8874 39.5608 52.6803 39.3537 52.4246 39.3537H51.7305V38.6595C51.7305 38.4038 51.5234 38.1968 51.2677 38.1968C51.012 38.1968 50.8049 38.4038 50.8049 38.6595V39.3537H50.1108C49.8551 39.3537 49.648 39.5608 49.648 39.8165C49.648 40.0721 49.8551 40.2792 50.1108 40.2792H50.8049V40.9734C50.8049 41.2291 51.012 41.4362 51.2677 41.4362ZM46.3241 41.6247C46.3241 42.6452 45.4934 43.4758 44.473 43.4758C43.4526 43.4758 42.6219 42.6452 42.6219 41.6247C42.6219 40.6043 43.4526 39.7737 44.473 39.7737C45.4946 39.7737 46.3241 40.6043 46.3241 41.6247ZM45.3986 41.6247C45.3986 41.1145 44.9832 40.6992 44.473 40.6992C43.9628 40.6992 43.5475 41.1145 43.5475 41.6247C43.5475 42.135 43.9628 42.5503 44.473 42.5503C44.9832 42.5503 45.3986 42.135 45.3986 41.6247ZM62.4113 30.7357C62.4842 30.7357 62.5582 30.7183 62.6265 30.6825C63.7556 30.0867 64.9808 29.7199 66.2696 29.5903C66.5242 29.5649 66.7093 29.3381 66.6838 29.0836C66.6584 28.8291 66.4374 28.6451 66.1771 28.6694C64.7691 28.8106 63.4294 29.2132 62.1938 29.8634C61.9682 29.9825 61.8814 30.2625 62.0006 30.4881C62.0839 30.6466 62.2447 30.7357 62.4113 30.7357ZM59.6566 33.1028C59.6612 33.097 60.1032 32.4931 60.9582 31.792C61.156 31.63 61.1849 31.3385 61.0229 31.1406C60.8621 30.9428 60.5706 30.9139 60.3716 31.0758C59.4148 31.8591 58.9254 32.5324 58.9058 32.5613C58.7565 32.7684 58.8039 33.0565 59.011 33.2069C59.0932 33.2659 59.188 33.2948 59.2818 33.2948C59.4252 33.2948 59.5664 33.2277 59.6566 33.1028ZM29.4421 39.8408C29.0974 39.6314 28.7295 39.4671 28.3188 39.3375C28.0735 39.26 27.8155 39.3953 27.738 39.6395C27.6605 39.8836 27.7958 40.1427 28.0399 40.2202C28.3789 40.3278 28.6809 40.462 28.962 40.6333C29.0372 40.6784 29.1194 40.7004 29.2015 40.7004C29.3577 40.7004 29.5104 40.6205 29.5983 40.4771C29.7302 40.2573 29.6596 39.9726 29.4421 39.8408ZM23.6482 40.2364C23.6899 40.2364 23.7327 40.2306 23.7755 40.2191C23.7859 40.2168 24.789 39.9356 26.0361 39.9356C26.0743 39.9356 26.1217 39.9391 26.1518 39.9368C26.404 39.9368 26.6111 39.7332 26.6146 39.4798C26.6181 39.2241 26.4133 39.0147 26.1576 39.0112C24.7195 38.9927 23.5684 39.3155 23.5198 39.3294C23.2745 39.4 23.1322 39.6556 23.2028 39.9009C23.2618 40.1034 23.4469 40.2364 23.6482 40.2364ZM28.0156 31.6809C27.937 31.9239 28.0712 32.1853 28.3141 32.2628C28.7098 32.3901 29.0835 32.559 29.4259 32.765C29.5 32.8101 29.5833 32.8309 29.6643 32.8309C29.8216 32.8309 29.9743 32.7511 30.0611 32.6065C30.193 32.3878 30.1224 32.1032 29.9038 31.9713C29.5011 31.7283 29.0627 31.5305 28.5987 31.3813C28.3569 31.3037 28.0943 31.438 28.0156 31.6809ZM27.4106 31.0805C25.659 30.7611 24.111 30.9752 24.045 30.9856C23.7917 31.0215 23.617 31.2563 23.6528 31.5085C23.6887 31.7607 23.9236 31.9354 24.1758 31.9019C24.1908 31.8996 25.6462 31.6994 27.244 31.9921C27.2717 31.9967 27.2995 31.9991 27.3273 31.9991C27.5459 31.9991 27.7414 31.8429 27.7819 31.6196C27.8294 31.3674 27.6616 31.1267 27.4106 31.0805ZM48.2874 40.7131C48.0398 40.6506 47.7876 40.8022 47.7263 41.0498C47.2369 43.0096 47.7159 44.4858 47.7367 44.5483C47.8015 44.7427 47.982 44.8653 48.1752 44.8653C48.2238 44.8653 48.2724 44.8572 48.3221 44.841C48.5639 44.76 48.6958 44.4986 48.6148 44.2556C48.6114 44.2429 48.1995 42.976 48.6253 41.2754C48.6866 41.0266 48.5362 40.7744 48.2874 40.7131Z" fill="url(#paint0_linear_381_1928)"/>
<defs>
<linearGradient id="paint0_linear_381_1928" x1="67.5905" y1="25.8731" x2="25.8291" y2="67.3931" gradientUnits="userSpaceOnUse">
<stop stop-color="#884D32"/>
<stop offset="0.5" stop-color="#AF6C29"/>
<stop offset="1" stop-color="#D39C79"/>
</linearGradient>
</defs>
</svg>
